<svg width="211" height="56" viewBox="0 0 211 56" fill="none" xmlns="http://www.w3.org/2000/svg">
<path d="M162.598 50.8148C165.563 51.0339 168.514 51.2822 171.465 51.5451V0H162.598V50.8148ZM19.9762 31.6954L8.42422 0H0V56C2.95069 55.591 5.90138 55.1821 8.86682 54.8023V24.3485L19.1352 53.5462C22.3662 53.181 25.5972 52.8305 28.843 52.4945V0H19.9762V31.6954ZM37.3705 51.6912C45.5439 50.9609 53.7468 50.3474 61.994 49.88V41.2332C56.727 41.5399 51.4748 41.8905 46.2373 42.2994V29.2123C49.6748 29.1831 54.2042 29.0809 58.2171 29.1247V20.4778C55.0156 20.4632 49.8666 20.5216 46.2373 20.5655V8.73448H61.994V0H37.3705V51.6912ZM67.6741 8.73448H76.954V49.1789C79.9047 49.0621 82.8553 48.9744 85.8208 48.9014V8.73448H95.1007V0H67.6741V8.73448ZM100.781 48.6531H109.648V28.6865H121.672V20.0396H109.648V8.73448H125.537V0H100.781V48.6531ZM210.532 0H200.794L194.377 14.7376L188.608 0H179.018L189.331 26.3203L178.074 52.144C181.187 52.4507 184.285 52.772 187.398 53.108L193.949 38.0929L200.426 54.6416C203.804 55.0652 207.168 55.518 210.532 56H210.546L198.994 26.5102L210.532 0ZM140.084 0H131.217V49.0913C139.273 49.3688 147.298 49.7632 155.295 50.289V41.6422C150.234 41.3062 145.174 41.0287 140.084 40.795V0V0Z" fill="#E82C2A"/>
</svg>
